<?xml version="1.0" encoding="utf-8"?>
<!-- Generator: Adobe Illustrator 24.0.0, SVG Export Plug-In . SVG Version: 6.00 Build 0)  -->
<svg version="1.1" id="Layer_1" xmlns="http://www.w3.org/2000/svg" xmlns:xlink="http://www.w3.org/1999/xlink" x="0px" y="0px"
	 viewBox="0 0 181 42.2" style="enable-background:new 0 0 181 42.2;" xml:space="preserve">
<style type="text/css">
	.st0{fill:#E84B3C;}
	.st1{fill:#E67D21;}
	.st2{fill:#F1C410;}
	.st3{fill:#2CAB61;}
	.st4{fill:#2981BA;}
	.st5{fill:#3C3C3B;}
	.st6{fill:#FFFFFF;}
</style>
<path class="st0" d="M5.6,29.7V13.9c0-4.5,2.4-7.2,6.8-7.2s6.8,2.7,6.8,7.2V17h-4.4v-3.4c0-1.9-0.9-2.7-2.3-2.7s-2.3,0.8-2.3,2.7V30
	c0,1.9,0.9,2.7,2.3,2.7s2.3-0.8,2.3-2.7v-4.5h4.4v4.2c0,4.5-2.4,7.2-6.8,7.2S5.6,34.2,5.6,29.7z"/>
<path class="st1" d="M21.7,29.5V14.1c0-4.7,2.5-7.4,7-7.4c4.5,0,7,2.7,7,7.4v15.5c0,4.7-2.5,7.4-7,7.4
	C24.2,36.9,21.7,34.2,21.7,29.5z M31.1,29.8v-16c0-2.1-0.9-2.9-2.4-2.9s-2.4,0.8-2.4,2.9v16c0,2.1,0.9,2.9,2.4,2.9
	S31.1,31.9,31.1,29.8z"/>
<path class="st2" d="M38.8,7.1h4.6v25.2H51v4.2H38.8V7.1z"/>
<path class="st3" d="M52.8,29.5V14.1c0-4.7,2.5-7.4,7-7.4c4.5,0,7,2.7,7,7.4v15.5c0,4.7-2.5,7.4-7,7.4
	C55.2,36.9,52.8,34.2,52.8,29.5z M62.2,29.8v-16c0-2.1-0.9-2.9-2.4-2.9s-2.4,0.8-2.4,2.9v16c0,2.1,0.9,2.9,2.4,2.9
	S62.2,31.9,62.2,29.8z"/>
<path class="st4" d="M69.9,7.1h6.8c4.8,0,6.8,2.2,6.8,6.8v1.8c0,3-1,5-3,5.8v0.1c2.3,0.7,3.1,2.9,3.1,6.2v5.2c0,1.4,0,2.5,0.5,3.6
	h-4.7c-0.3-0.8-0.4-1.2-0.4-3.6v-5.4c0-2.7-0.8-3.6-2.9-3.6h-1.6v12.6h-4.6V7.1z M76.2,19.7c1.7,0,2.8-0.8,2.8-3.1v-2.3
	c0-2.1-0.7-3-2.4-3h-2.1v8.4H76.2z"/>
<path class="st5" d="M93.5,7.1h5.2c3.5,0,5.1,1.6,5.1,5V13c0,2.2-0.7,3.6-2.2,4.3v0.1c1.8,0.6,2.5,2.2,2.5,4.5v1.9
	c0,3.4-1.8,5.2-5.2,5.2h-5.4V7.1z M98.3,16c1.3,0,2.1-0.6,2.1-2.3v-1.2c0-1.6-0.5-2.2-1.7-2.2H97V16H98.3z M98.9,25.7
	c1.1,0,1.8-0.5,1.8-2.1v-1.9c0-2-0.7-2.6-2.2-2.6H97v6.7H98.9z"/>
<path class="st5" d="M106.1,7.1h3.4v18.6h5.6v3.1h-9V7.1z"/>
<path class="st5" d="M116.8,7.1h3.4v21.7h-3.4V7.1z"/>
<path class="st5" d="M122.7,7.1h4.3l3.3,13h0.1v-13h3v21.7H130L125.9,13h-0.1v15.9h-3V7.1z"/>
<path class="st5" d="M136,7.1h5.2c3.4,0,5.1,1.9,5.1,5.4v11c0,3.5-1.7,5.4-5.1,5.4H136V7.1z M141.2,25.7c1.1,0,1.7-0.6,1.7-2.1V12.3
	c0-1.6-0.7-2.1-1.7-2.1h-1.7v15.5H141.2z"/>
<path class="st5" d="M148.6,7.1h9.3v3.1H152V16h4.7v3.1H152v6.7h5.9v3.1h-9.3V7.1z"/>
<path class="st5" d="M159.9,7.1h5.1c3.5,0,5.1,1.6,5.1,5v1.3c0,2.2-0.7,3.7-2.2,4.3v0.1c1.7,0.5,2.3,2.1,2.3,4.6v3.8
	c0,1.1,0,1.8,0.4,2.6h-3.5c-0.2-0.6-0.3-0.9-0.3-2.7v-4c0-2-0.6-2.7-2.1-2.7h-1.2v9.3h-3.4V7.1z M164.6,16.4c1.3,0,2.1-0.6,2.1-2.3
	v-1.7c0-1.6-0.5-2.2-1.7-2.2h-1.6v6.2H164.6z"/>
<rect x="93.5" y="33.7" class="st5" width="76.9" height="3.2"/>
<g>
	<path class="st6" d="M238.7,56.7h-45.2c-3.2,0-5.8-2.6-5.8-5.8V5.8c0-3.2,2.6-5.8,5.8-5.8h45.2c3.2,0,5.8,2.6,5.8,5.8v45.2
		C244.5,54.1,241.9,56.7,238.7,56.7z"/>
	<path class="st0" d="M198,28.3v13.9c0,3.3,1.6,4.5,3.9,4.5c2.3,0,3.9-1.3,3.9-4.5v-7.6h7.4v7c0,7.7-4,12.2-11.5,12.2
		s-11.5-4.5-11.5-12.2V27.3 M190.2,27.3V15c0-7.7,4-12.2,11.5-12.2s11.5,4.5,11.5,12.2v5.3h-7.4v-5.8c0-3.3-1.6-4.6-3.9-4.6
		c-2.3,0-3.9,1.4-3.9,4.6v13.9"/>
	<path class="st4" d="M217.9,3.5h11.8c8.1,0,11.6,3.8,11.6,11.4v2c0,5.1-1.6,8.3-5,9.7v0.1c4.2,1.4,5.8,5.1,5.8,10.4v4.3
		c0,7.7-4,11.8-11.9,11.8h-12.3V3.5z M228.8,23.7c2.9,0,4.7-1.3,4.7-5.3v-2.8c0-3.6-1.2-5.1-4-5.1h-3.8v13.1H228.8z M230.2,46.1
		c2.6,0,4-1.2,4-4.9v-4.3c0-4.6-1.5-6-5-6h-3.5v15.3H230.2z"/>
</g>
</svg>
